<svg xmlns="http://www.w3.org/2000/svg" viewBox="0 0 276.88 98.2"><defs><style>.cls-1{fill:#fbfbfb;}</style></defs><g id="Capa_2" data-name="Capa 2"><g id="Capa_1-2" data-name="Capa 1"><path class="cls-1" d="M31,94.08c-5.42,0-7.44-6.34-8.31-9.06-1.15-3.62-2.16-8.24-3.23-13.14-1-4.47-2.6-11.86-4.15-16-1.24,2.55-3.12,7.49-5.49,16.94A5,5,0,0,1,.15,70.39C5.09,50.68,9.34,43.45,15.82,43.72c7.7.32,10.06,11.1,13.33,26,.52,2.33,1.14,5.19,1.79,7.81.8-3.45,1.57-7.38,2.14-10.32C36.26,51,38.17,41.13,45.43,40.93c5.67-.16,8.07,6.6,9.1,9.48,1.42,4,2.69,9,4,14.35,1.11,4.42,2.76,10.94,4.28,15.06,1.45-4.07,3-10.44,4-14.77,3.5-14.48,5.81-24,13-23.95s9.08,9.53,12.1,23.82c1,4.72,2.66,12.61,4.26,16.77,1.29-2.44,3.32-7.35,5.93-17.11a5,5,0,0,1,9.61,2.58,116.2,116.2,0,0,1-5.52,16.64c-1.24,2.76-4.52,10.1-10.67,9.79C87.73,93.18,85.41,82.19,82.2,67c-.69-3.23-1.63-7.71-2.59-11.27-1.12,3.66-2.24,8.33-3,11.68C73,82.1,70.44,92.72,62.94,92.77h0c-7.51,0-10.22-10.73-14-25.58-.84-3.32-2-8-3.15-11.6-1.09,4.16-2.16,9.65-2.92,13.55C39.82,84.66,38,94,31,94.08Z"/><path class="cls-1" d="M132.9,98.2a30.7,30.7,0,1,1,30.7-30.69A30.73,30.73,0,0,1,132.9,98.2Zm0-51.39a20.7,20.7,0,1,0,20.7,20.7A20.72,20.72,0,0,0,132.9,46.81Z"/><path class="cls-1" d="M189.54,98.2a30.7,30.7,0,1,1,30.7-30.69A30.73,30.73,0,0,1,189.54,98.2Zm0-51.39a20.7,20.7,0,1,0,20.7,20.7A20.72,20.72,0,0,0,189.54,46.81Z"/><path class="cls-1" d="M246.19,98.2a30.7,30.7,0,1,1,30.69-30.69A30.73,30.73,0,0,1,246.19,98.2Zm0-51.39a20.7,20.7,0,1,0,20.69,20.7A20.72,20.72,0,0,0,246.19,46.81Z"/><path class="cls-1" d="M271.84,73.41a5,5,0,0,1-5-5V5a5,5,0,0,1,10,0V68.41A5,5,0,0,1,271.84,73.41Z"/></g></g></svg>